<svg id="Capa_1" enable-background="new 0 0 512 512" height="512" viewBox="0 0 512 512" width="512" xmlns="http://www.w3.org/2000/svg"><g><path d="m100.736 186.149c0 41.239 69.514 109.579 155.264 109.579s155.264-68.341 155.264-109.579v-111.48c0 41.239-310.528 41.239-310.528 0z" fill="#475959"/><path d="m370.057 125.333v111.48c25.578-13.311 41.207-31.11 41.207-50.663v-111.481c0 19.554-15.629 37.352-41.207 50.664z" fill="#404a4a"/><path d="m100.736 437.331c0 41.238 69.514 74.669 155.264 74.669s155.264-33.431 155.264-74.669v-200.381c0 41.239-69.514 50.663-155.264 50.663s-155.264-9.425-155.264-50.663z" fill="#e4936b"/><path d="m370.057 287.613v129.114c0 41.239-69.514 74.669-155.264 74.669-33.219 0-64.002-5.017-89.25-13.562 27.655 20.56 75.752 34.166 130.457 34.166 85.75 0 155.264-33.431 155.264-74.669v-200.381c0 19.554-15.629 37.352-41.207 50.663z" fill="#e27d47"/><ellipse cx="256" cy="74.669" fill="#738b95" rx="155.264" ry="74.669"/><path d="m345.25 13.562c15.694 11.667 24.806 25.574 24.806 40.504 0 41.239-69.514 74.669-155.264 74.669-33.219 0-64.002-5.017-89.25-13.562 27.656 20.559 75.753 34.166 130.458 34.166 85.75 0 155.264-33.431 155.264-74.669 0-25.264-26.087-47.596-66.014-61.108z" fill="#617881"/><path d="m100.736 236.95c0 41.239 69.514 74.669 155.264 74.669s155.264-33.431 155.264-74.669v-50.8c0 41.239-69.514 74.669-155.264 74.669s-155.264-33.431-155.264-74.669z" fill="#f4dd45"/><path d="m370.057 236.813v50.8c25.578-13.311 41.207-31.109 41.207-50.663v-50.8c0 19.553-15.629 37.351-41.207 50.663z" fill="#eab14d"/><g fill="#f1f4f6"><path d="m300.867 33.962h-89.735c-30.289 7.737-50.915 23.064-50.915 40.707 0 25.44 42.883 46.064 95.783 46.064s95.783-20.623 95.783-46.064c0-17.643-20.627-32.97-50.916-40.707z"/><path d="m283.38 191.732h-11.9c-1.179 0-2.134-.956-2.134-2.134v-11.9c0-1.179-.956-2.134-2.134-2.134h-22.424c-1.179 0-2.134.956-2.134 2.134v11.9c0 1.179-.956 2.134-2.134 2.134h-11.9c-1.179 0-2.134.956-2.134 2.134v22.424c0 1.179.956 2.134 2.134 2.134h11.9c1.179 0 2.134.956 2.134 2.134v11.9c0 1.179.956 2.134 2.134 2.134h22.424c1.179 0 2.134-.956 2.134-2.134v-11.9c0-1.179.956-2.134 2.134-2.134h11.9c1.179 0 2.134-.956 2.134-2.134v-22.424c.001-1.178-.955-2.134-2.134-2.134z"/><path d="m277.875 343.054c30.539 9.699 50.797 37.891 50.797 69.327 0 4.268-3.459 7.726-7.726 7.726s-7.726-3.459-7.726-7.726c0-23.869-14.834-45.365-37.457-53.718z"/><path d="m241.792 356.938c-12.169 3.109-23.152 10.308-30.93 20.274-1.362 1.745-3.407 2.823-5.617 2.959-.158.009-.316.014-.474.014-2.042 0-4.01-.81-5.463-2.263l-12.61-12.61c-3.018-3.018-3.018-7.909 0-10.928 3.017-3.016 7.909-3.016 10.927 0l6.804 6.804c12.43-12.494 29.266-20.346 47.051-21.296z"/><path d="m232.776 481.265c-29.882-10.144-49.448-37.663-49.448-68.884 0-4.268 3.459-7.726 7.726-7.726s7.726 3.459 7.726 7.726c0 23.528 14.11 44.386 35.948 53.137 3.961 1.588 5.885 6.086 4.298 10.046z"/><path d="m251.88 469.454c1.372.097 2.758.146 4.12.146 17.955 0 34.523-8.187 45.457-22.462 1.354-1.768 3.403-2.865 5.625-3.011 2.222-.148 4.398.672 5.973 2.245l12.61 12.61c3.017 3.018 3.017 7.909 0 10.928-3.018 3.016-7.909 3.016-10.928 0l-6.741-6.741c-13.62 14.003-32.139 21.884-51.995 21.884-5.291 0-10.851-.588-15.285-1.676z"/></g><path d="m319.005 472.079c2.354.367 4.845-.356 6.659-2.169.457-.457.843-.956 1.162-1.486-2.518 1.261-5.126 2.48-7.821 3.655z" fill="#dfeaef"/><path d="m247.432 429.07-18.292 51.22c-.849 2.377.913 4.877 3.437 4.877h11.659c1.248 0 2.409-.637 3.079-1.69l49.526-77.792c2.259-3.548-.29-8.192-4.496-8.192h-18.713c-3.685 0-6.258-3.651-5.019-7.122l15.591-43.655c1.24-3.471-1.334-7.122-5.019-7.122h-32.028c-2.252 0-4.261 1.416-5.019 3.537l-27.504 77.015c-1.24 3.471 1.334 7.122 5.019 7.122h26.51c.931 0 1.583.924 1.269 1.802z" fill="#f4dd45"/><path d="m211.133 21.578c0 11.917 89.735 11.917 89.735 0v43.95c0 11.917-20.088 21.578-44.867 21.578s-44.867-9.661-44.867-21.578v-43.95z" fill="#dfeaef"/><ellipse cx="256" cy="21.578" fill="#f1f4f6" rx="44.867" ry="21.578"/></g></svg>