<?xml version="1.0" encoding="UTF-8" standalone="no"?>
<svg
   xmlns:dc="http://purl.org/dc/elements/1.1/"
   xmlns:cc="http://creativecommons.org/ns#"
   xmlns:rdf="http://www.w3.org/1999/02/22-rdf-syntax-ns#"
   xmlns:svg="http://www.w3.org/2000/svg"
   xmlns="http://www.w3.org/2000/svg"
   xmlns:sodipodi="http://sodipodi.sourceforge.net/DTD/sodipodi-0.dtd"
   xmlns:inkscape="http://www.inkscape.org/namespaces/inkscape"
   sodipodi:docname="robot.svg"
   inkscape:version="1.0 (4035a4fb49, 2020-05-01)"
   width="512px"
   height="512px"
   viewBox="0 0 512 512"
   version="1.1"
   id="SVGRoot">
  <defs
     id="defs255" />
  <sodipodi:namedview
     inkscape:window-maximized="0"
     inkscape:window-y="147"
     inkscape:window-x="2384"
     inkscape:window-height="1080"
     inkscape:window-width="1349"
     showgrid="false"
     inkscape:document-rotation="0"
     inkscape:current-layer="layer1"
     inkscape:document-units="px"
     inkscape:cy="204.4227"
     inkscape:cx="305.74887"
     inkscape:zoom="0.98994949"
     inkscape:pageshadow="2"
     inkscape:pageopacity="0.0"
     borderopacity="1.0"
     bordercolor="#666666"
     pagecolor="#ffffff"
     id="base" />
  <metadata
     id="metadata258">
    <rdf:RDF>
      <cc:Work
         rdf:about="">
        <dc:format>image/svg+xml</dc:format>
        <dc:type
           rdf:resource="http://purl.org/dc/dcmitype/StillImage" />
        <dc:title></dc:title>
      </cc:Work>
    </rdf:RDF>
  </metadata>
  <g
     id="layer1"
     inkscape:groupmode="layer"
     inkscape:label="Layer 1">
    <path
       id="path2"
       d="m 496.25572,261.64675 c 0,4.57407 -3.71254,8.28758 -8.28758,8.28758 h -16.57419 c -4.57406,0 -8.28758,3.71254 -8.28758,8.28758 -4.40779,114.33906 -100.68103,203.45171 -215.02106,199.03516 -14.12963,-0.54745 -28.16008,-2.53596 -41.88423,-5.9422 -20.5026,-5.23723 -40.07755,-13.624 -58.01112,-24.86177 C 89.011,410.51107 51.701813,347.39497 48.743838,278.22094 c 0,-4.57504 -3.71254,-8.28758 -8.287581,-8.28758 h -16.57419 c -4.57504,0 -8.28758,-3.71254 -8.28758,-8.28758 v 0 c 0,-132.72868 107.601453,-240.331111 240.331113,-240.331111 132.72965,0 240.33012,107.603401 240.33012,240.332081 z"
       style="fill:#607d8b;stroke-width:0.972378" />
    <path
       id="path4"
       d="m 463.10734,245.07256 c 0,4.57504 -3.71254,8.28758 -8.28758,8.28758 h -16.57419 c -4.57406,0 -8.28758,3.71254 -8.28758,8.28758 -4.40876,114.33906 -100.682,203.45268 -215.02106,199.03516 -14.12963,-0.54745 -28.16008,-2.53596 -41.88423,-5.9422 -8.45288,-2.2462 -16.757,-5.01358 -24.86177,-8.28758 C 89.011,410.51107 51.701813,347.39497 48.743838,278.22094 c 0,-4.57504 -3.71254,-8.28758 -8.287581,-8.28758 h -16.57419 c -4.57504,0 -8.28758,-3.71254 -8.28758,-8.28758 v 0 C 20.152024,129.00072 131.37559,25.152647 264.03037,29.702405 292.1992,30.671866 319.97811,36.58101 346.09133,47.172156 416.16772,88.99804 460.23105,163.51724 463.10734,245.07256 Z"
       style="fill:#cfd8dc;stroke-width:0.972378" />
    <path
       id="path6"
       d="m 371.94687,269.93433 c 0,2.81795 0,5.55228 0,8.28758 -0.75457,11.35349 -3.21566,22.52515 -7.29284,33.14935 -6.00832,15.61348 -15.30621,29.74311 -27.26549,41.43596 -2.97548,2.95895 -6.12404,5.72634 -9.44763,8.28758 -3.44708,2.71002 -7.04391,5.22946 -10.77298,7.54177 l -2.9006,1.65791 c -17.68465,10.36749 -37.84011,15.77878 -58.34271,15.66307 -5.55228,0.009 -11.08803,-0.40646 -16.57419,-1.2427 -14.62749,-2.02255 -28.7153,-6.91945 -41.43596,-14.4194 l -2.9006,-1.65791 c -3.72907,-2.31231 -7.3259,-4.83174 -10.77298,-7.54176 -3.32359,-2.56028 -6.47215,-5.32864 -9.44763,-8.28758 -11.95831,-11.69285 -21.25717,-25.82346 -27.26549,-41.43597 -4.1929,-10.59892 -6.76192,-21.77933 -7.62442,-33.14935 0,-2.7353 0,-5.46963 0,-8.28758 -0.0331,-17.20429 3.78741,-34.19369 11.18819,-49.72354 16.64906,-35.13009 49.78188,-59.5854 88.25987,-65.13769 5.49491,-0.76234 11.03066,-1.15226 16.57419,-1.16004 64.07682,-0.002 116.02127,51.94251 116.02127,116.0203 z"
       style="fill:#f57c00;stroke-width:0.972378" />
    <path
       id="path8"
       d="m 338.79849,269.93433 c 0,2.81795 0,5.55228 0,8.28758 -0.75457,11.35349 -3.21566,22.52515 -7.29284,33.14935 -6.00832,15.61348 -15.30621,29.74311 -27.26549,41.43596 -2.97548,2.95895 -6.12404,5.72634 -9.44763,8.28758 -3.44708,2.71002 -7.04391,5.22946 -10.77298,7.54177 l -2.9006,1.65791 c -12.72066,7.49995 -26.80945,12.39782 -41.43596,14.4194 -14.62749,-2.02255 -28.71531,-6.91945 -41.43596,-14.4194 l -2.90061,-1.65791 c -3.72907,-2.31231 -7.3259,-4.83175 -10.77298,-7.54177 -3.32359,-2.56027 -6.47215,-5.32863 -9.44763,-8.28758 -11.95831,-11.69285 -21.25716,-25.82345 -27.26549,-41.43596 -4.30958,-10.58239 -6.98654,-21.7628 -7.956,-33.14935 0,-2.7353 0,-5.46963 0,-8.28758 -0.0331,-17.20429 3.78742,-34.19369 11.18819,-49.72354 16.64906,-35.13009 49.78188,-59.58541 88.25987,-65.13769 38.47798,5.55228 71.60983,30.00857 88.25987,65.13769 7.39883,15.52985 11.2193,32.52703 11.18624,49.72354 z"
       style="fill:#ff9801;stroke-width:0.972378" />
    <circle
       id="circle10"
       r="33.149353"
       cy="269.9343"
       cx="255.90907"
       style="fill:#ffeb3a;stroke-width:0.972378" />
    <path
       style="stroke-width:0.972378"
       id="path12"
       d="m 413.3838,501.97785 c -4.57407,0.0331 -8.31189,-3.64642 -8.3537,-8.22146 -0.0253,-2.7353 1.30104,-5.29557 3.54724,-6.86207 33.55483,-23.80091 61.20149,-54.98606 80.80075,-91.15951 2.28704,-4.02759 7.40855,-5.43657 11.43614,-3.14953 4.0276,2.28703 5.43657,7.40855 3.14954,11.43614 -20.96642,38.32824 -50.45283,71.32882 -86.18773,96.46383 -1.29327,0.91209 -2.81796,1.42648 -4.39224,1.4926 z" />
    <path
       style="stroke-width:0.972378"
       id="path14"
       d="m 380.23445,483.82841 c -4.56629,-0.28977 -8.0299,-4.22693 -7.74013,-8.801 0.15752,-2.47762 1.41675,-4.75688 3.43055,-6.19891 37.37531,-22.8402 67.58224,-55.71534 87.18247,-94.88955 2.06339,-4.09371 7.05267,-5.75162 11.14638,-3.68823 4.09371,2.06339 5.75162,7.05266 3.68823,11.14637 -21.06658,41.79283 -53.41955,76.84804 -93.39792,101.18764 -1.29326,0.80416 -2.78489,1.2359 -4.30958,1.24368 z" />
    <path
       style="stroke-width:0.972378"
       id="path16"
       d="m 98.46738,501.97785 c -1.715275,0.0165 -3.39749,-0.50564 -4.806466,-1.49163 C 58.233279,475.25981 29.036645,442.2602 8.3016485,404.02239 c -2.2870339,-4.02759 -0.8780577,-9.1491 3.1495335,-11.43614 4.027591,-2.28703 9.149108,-0.87806 11.436142,3.14953 19.599259,36.17345 47.245922,67.3586 80.800756,91.15951 3.76214,2.61083 4.69854,7.77319 2.08867,11.5363 -1.64915,2.37746 -4.41752,3.72032 -7.30937,3.54626 z" />
    <path
       style="stroke-width:0.972378"
       id="path18"
       d="m 131.61577,483.82841 c -1.52469,-0.009 -3.01632,-0.43952 -4.30958,-1.2427 C 87.328786,458.2461 54.975812,423.19089 33.909233,381.39807 c -2.063387,-4.09372 -0.406454,-9.08299 3.688232,-11.14638 4.094685,-2.06339 9.082986,-0.40645 11.146373,3.68823 19.599259,39.17421 49.806195,72.04935 87.182482,94.88955 3.71254,2.66821 4.56629,7.84807 1.88933,11.56936 -1.44203,2.01282 -3.72129,3.27205 -6.19988,3.42958 z" />
    <path
       style="stroke-width:0.972378"
       id="path20"
       d="M 255.9256,485.40269 C 140.08616,485.48534 44.915585,393.96897 40.456257,278.22094 h -16.57419 c -4.500167,0.009 -8.809748,-1.82321 -11.933999,-5.0554 -3.1077218,-3.21565 -4.773406,-7.54954 -4.6411626,-12.01665 0,-137.3115 111.3062146,-248.617715 248.6177146,-248.617715 137.3115,0 248.61771,111.306215 248.61771,248.617715 0.11572,4.44182 -1.55775,8.73488 -4.64116,11.934 -3.11647,3.26525 -7.42508,5.12152 -11.934,5.13805 H 471.39298 C 467.15147,394.06913 371.85547,485.70996 255.9256,485.40269 Z M 40.456257,261.64675 c 8.967274,0 16.309703,7.11878 16.57419,16.0773 3.729071,88.50005 65.295213,163.96342 151.242773,185.38589 31.31739,7.59914 63.98639,7.59914 95.30378,0 85.94755,-21.42247 147.51369,-96.88681 151.24276,-185.38589 0.26546,-8.95852 7.60789,-16.0773 16.57419,-16.0773 h 16.57419 c 0,-128.15461 -103.88891,-232.043527 -232.04352,-232.043527 -128.15461,0 -232.042553,103.888917 -232.042553,232.043527 z" />
    <path
       id="path22"
       d="m 305.64914,468.8285 c 0.0418,0.77109 0.0418,1.54997 0,2.32009 -32.66803,7.98031 -66.77906,7.98031 -99.44709,0 -0.0418,-0.77109 -0.0418,-1.54997 0,-2.32009 0,-27.46386 22.25969,-49.72354 49.72355,-49.72354 27.46385,0 49.72354,22.26746 49.72354,49.72354 z"
       style="fill:#00bcd4;stroke-width:0.972378" />
    <path
       style="stroke-width:0.972378"
       id="path24"
       d="m 255.9256,485.40269 c -17.39488,0 -34.73239,-2.08867 -51.62941,-6.21545 -3.38971,-0.81193 -5.90914,-3.66295 -6.29809,-7.12753 -0.0827,-1.07739 -0.11572,-2.15479 -0.0827,-3.23219 0,-32.03889 25.97223,-58.01112 58.01113,-58.01112 32.03889,0 58.01112,25.97223 58.01112,58.01112 0.0583,1.0774 0.0583,2.1548 0,3.23219 -0.38992,3.46458 -2.90838,6.31463 -6.29809,7.12753 -16.92425,4.13553 -34.28607,6.2242 -51.714,6.21545 z m -41.43694,-20.80112 c 27.19062,5.66799 55.26805,5.66799 82.45866,0 -2.28703,-22.7731 -22.59904,-39.37258 -45.36437,-37.09332 -19.61579,1.97198 -35.12133,17.48628 -37.09429,37.09332 z" />
    <path
       id="path26"
       d="m 436.67032,195.34902 h -18.3974 c -3.09119,-0.0418 -5.90039,-1.79793 -7.29284,-4.55754 -43.6909,-85.6082 -148.50746,-119.594771 -234.12343,-75.90386 -32.66803,16.67435 -59.22952,43.23486 -75.9029,75.90289 -1.392444,2.75961 -4.201645,4.51669 -7.292836,4.55753 H 75.17989 c -4.57504,-0.009 -8.27883,-3.72907 -8.271051,-8.30411 0,-1.1688 0.248929,-2.32009 0.729284,-3.38096 l 1.160048,-2.48637 C 117.81772,77.785545 241.37298,33.705687 344.765,82.724255 c 43.19305,20.478285 77.98281,55.259295 98.4611,98.461095 l 1.16004,2.48637 c 1.88156,4.17637 0.0165,9.08299 -4.15983,10.95579 -1.11921,0.49689 -2.32885,0.74582 -3.55599,0.72151 z"
       style="fill:#00bcd4;stroke-width:0.972378" />
    <path
       style="stroke-width:0.972378"
       id="path28"
       d="m 436.67032,203.63562 h -18.3974 c -6.19016,-0.0331 -11.85037,-3.52195 -14.66833,-9.03339 C 362.00236,113.06344 262.1741,80.693929 180.63531,122.29617 c -31.11903,15.87797 -56.42809,41.18801 -72.30606,72.30606 -2.81796,5.51144 -8.478175,9.00033 -14.668336,9.03339 H 75.17989 c -9.15786,0.0253 -16.599472,-7.37549 -16.624754,-16.52459 -0.0088,-2.36191 0.489107,-4.69076 1.458568,-6.84555 l 1.160047,-2.48637 C 112.09138,70.227248 240.56104,24.30765 348.12165,75.2243 c 45.00848,21.306756 81.25681,57.54633 102.56356,102.56356 l 1.16005,2.56903 c 3.70476,8.37023 -0.0749,18.15722 -8.44511,21.86976 -2.12173,0.92862 -4.40876,1.41773 -6.72983,1.40897 z M 255.9256,71.039184 C 179.15243,71.312422 109.31524,115.49244 76.174633,184.74037 l -1.077395,2.32009 H 93.660914 C 139.48134,97.400362 249.31245,61.856042 338.98032,107.68521 c 34.15188,17.45322 61.92203,45.23213 79.37525,79.37525 h 18.3974 l -1.07739,-2.40372 C 402.53498,115.42632 332.68223,71.280333 255.9256,71.039184 Z" />
    <path
       style="stroke-width:0.972378"
       id="path30"
       d="m 255.9256,394.24318 c -21.85324,0.10794 -43.33405,-5.6184 -62.23708,-16.57419 l -3.14954,-1.82321 c -3.96147,-2.54374 -7.78194,-5.3121 -11.43614,-8.28758 -3.5803,-2.76836 -6.98654,-5.75939 -10.19344,-8.95074 -12.72941,-12.49701 -22.62433,-27.58832 -29.00508,-44.25391 -4.54101,-11.39531 -7.33465,-23.41196 -8.28758,-35.63573 0,-2.7353 0,-5.71855 0,-8.78446 -0.0496,-18.43922 4.06065,-36.65478 12.01665,-53.28731 29.40278,-62.03872 103.52427,-88.50005 165.57174,-59.0963 25.93041,12.28989 46.81515,33.16588 59.09629,59.0963 7.93072,16.64128 12.0079,34.85587 11.934,53.28731 0,3.06591 0,6.05014 0,9.03339 -0.96946,12.14112 -3.76213,24.07415 -8.28758,35.3868 -6.40603,16.74046 -16.35929,31.88915 -29.17135,44.42019 -3.2069,3.19037 -6.61315,6.18238 -10.19344,8.94977 -3.65517,2.97548 -7.4669,5.74286 -11.43615,8.28758 -1.07739,0.66316 -2.32009,1.40898 -3.56376,1.98851 -18.74649,10.78173 -40.02796,16.38458 -61.65754,16.24358 z m 0,-232.04352 c -41.58571,0.13225 -79.4336,24.05762 -97.37495,61.57489 -6.8786,14.41162 -10.41709,30.19041 -10.35875,46.15978 0,2.56902 0,5.05539 0,7.54177 0.69623,10.61642 2.98326,21.06657 6.79596,30.99456 5.58534,14.49427 14.22881,27.6136 25.35865,38.4527 2.73433,2.72655 5.64369,5.27029 8.70182,7.62442 3.23996,2.52721 6.61314,4.88134 10.11079,7.04391 l 2.23744,1.32632 c 33.373,19.11016 74.36167,19.11016 107.73466,0 l 2.65168,-1.49162 c 3.60461,-2.09645 7.0935,-4.39224 10.44237,-6.87861 3.05813,-2.35316 5.96652,-4.89787 8.70182,-7.62442 11.13762,-10.86438 19.78984,-24.00802 25.35865,-38.53535 3.98578,-9.79574 6.47215,-20.13018 7.37549,-30.66299 0,-2.7353 0,-5.22069 0,-7.78972 0.0584,-15.96937 -3.48111,-31.74815 -10.35874,-46.15977 -17.9433,-37.51825 -55.78341,-61.44362 -97.37689,-61.57587 z" />
    <path
       style="stroke-width:0.972378"
       id="path32"
       d="m 255.9256,311.37029 c -22.88104,0 -41.43597,-18.55492 -41.43597,-41.43596 0,-22.88104 18.55493,-41.43596 41.43597,-41.43596 22.88103,0 41.43596,18.55492 41.43596,41.43596 0,22.88104 -18.54715,41.43596 -41.43596,41.43596 z m 0,-66.29773 c -13.73193,0 -24.86178,11.12984 -24.86178,24.86177 0,13.73193 11.12985,24.86177 24.86178,24.86177 13.73192,0 24.86177,-11.12984 24.86177,-24.86177 0,-13.72415 -11.12985,-24.86177 -24.86177,-24.86177 z" />
    <path
       style="stroke-width:0.972378"
       id="path34"
       d="m 255.9256,243.58093 c -4.57504,0 -8.28759,-3.71254 -8.28759,-8.28758 v -48.23192 c 0,-4.57504 3.71255,-8.28758 8.28759,-8.28758 4.57504,0 8.28758,3.71254 8.28758,8.28758 v 48.23192 c -9.8e-4,4.58282 -3.70477,8.28758 -8.28758,8.28758 z" />
    <path
       style="stroke-width:0.972378"
       id="path36"
       d="m 302.74853,323.55225 c -2.20438,0.0165 -4.31736,-0.85375 -5.88386,-2.40372 L 274.9035,299.18736 c -2.97547,-3.47236 -2.56902,-8.70959 0.90334,-11.68507 3.09995,-2.66043 7.68277,-2.66043 10.78174,0 l 21.96116,21.96117 c 3.24872,3.22343 3.27303,8.46941 0.0496,11.71813 -1.5665,1.58303 -3.70476,2.46109 -5.93345,2.45331 z" />
    <path
       style="stroke-width:0.972378"
       id="path38"
       d="m 255.9256,485.40269 c -4.57504,0 -8.28759,-3.71254 -8.28759,-8.28758 v -24.86178 c 0,-4.57504 3.71255,-8.28758 8.28759,-8.28758 4.57504,0 8.28758,3.71254 8.28758,8.28758 v 24.86178 c -9.8e-4,4.58379 -3.70477,8.28758 -8.28758,8.28758 z" />
    <g
       transform="matrix(0.9723784,0,0,0.9723784,7.2057781,8.3353621)"
       id="g40" />
    <g
       transform="matrix(0.9723784,0,0,0.9723784,7.2057781,8.3353621)"
       id="g42" />
    <g
       transform="matrix(0.9723784,0,0,0.9723784,7.2057781,8.3353621)"
       id="g44" />
    <g
       transform="matrix(0.9723784,0,0,0.9723784,7.2057781,8.3353621)"
       id="g46" />
    <g
       transform="matrix(0.9723784,0,0,0.9723784,7.2057781,8.3353621)"
       id="g48" />
    <g
       transform="matrix(0.9723784,0,0,0.9723784,7.2057781,8.3353621)"
       id="g50" />
    <g
       transform="matrix(0.9723784,0,0,0.9723784,7.2057781,8.3353621)"
       id="g52" />
    <g
       transform="matrix(0.9723784,0,0,0.9723784,7.2057781,8.3353621)"
       id="g54" />
    <g
       transform="matrix(0.9723784,0,0,0.9723784,7.2057781,8.3353621)"
       id="g56" />
    <g
       transform="matrix(0.9723784,0,0,0.9723784,7.2057781,8.3353621)"
       id="g58" />
    <g
       transform="matrix(0.9723784,0,0,0.9723784,7.2057781,8.3353621)"
       id="g60" />
    <g
       transform="matrix(0.9723784,0,0,0.9723784,7.2057781,8.3353621)"
       id="g62" />
    <g
       transform="matrix(0.9723784,0,0,0.9723784,7.2057781,8.3353621)"
       id="g64" />
    <g
       transform="matrix(0.9723784,0,0,0.9723784,7.2057781,8.3353621)"
       id="g66" />
    <g
       transform="matrix(0.9723784,0,0,0.9723784,7.2057781,8.3353621)"
       id="g68" />
  </g>
</svg>
